<?xml version="1.0" encoding="UTF-8"?>
<svg version="1.1" xmlns="http://www.w3.org/2000/svg" width="64" height="64">
<path d="M0 0 C1.10794922 -0.01260864 2.21589844 -0.02521729 3.35742188 -0.03820801 C4.54916016 -0.03011108 5.74089844 -0.02201416 6.96875 -0.01367188 C8.19658203 -0.01749878 9.42441406 -0.02132568 10.68945312 -0.02526855 C13.28516459 -0.02799029 15.88090336 -0.02061099 18.4765625 -0.00390625 C22.45374599 0.01749738 26.42912282 -0.0037015 30.40625 -0.02929688 C32.92708733 -0.02665365 35.44792353 -0.02152878 37.96875 -0.01367188 C39.16048828 -0.0217688 40.35222656 -0.02986572 41.58007812 -0.03820801 C43.24200195 -0.01929504 43.24200195 -0.01929504 44.9375 0 C45.91138672 0.00318237 46.88527344 0.00636475 47.88867188 0.00964355 C51.27982566 0.67725289 52.44432128 1.74092988 54.46875 4.51757812 C54.97668457 7.09765625 54.97668457 7.09765625 54.98632812 10.04882812 C54.99893677 11.15677734 55.01154541 12.26472656 55.02453613 13.40625 C55.01643921 14.59798828 55.00834229 15.78972656 55 17.01757812 C55.00574036 18.85932617 55.00574036 18.85932617 55.01159668 20.73828125 C55.01431842 23.33399272 55.00693911 25.92973149 54.99023438 28.52539062 C54.96883075 32.50257412 54.99002963 36.47795094 55.015625 40.45507812 C55.01298177 42.97591545 55.00785691 45.49675166 55 48.01757812 C55.00809692 49.20931641 55.01619385 50.40105469 55.02453613 51.62890625 C55.01192749 52.73685547 54.99931885 53.84480469 54.98632812 54.98632812 C54.98314575 55.96021484 54.97996338 56.93410156 54.97668457 57.9375 C54.30907524 61.32865378 53.24539824 62.4931494 50.46875 64.51757812 C47.88867188 65.0255127 47.88867188 65.0255127 44.9375 65.03515625 C43.82955078 65.04776489 42.72160156 65.06037354 41.58007812 65.07336426 C40.38833984 65.06526733 39.19660156 65.05717041 37.96875 65.04882812 C36.12700195 65.05456848 36.12700195 65.05456848 34.24804688 65.0604248 C31.65233541 65.06314654 29.05659664 65.05576724 26.4609375 65.0390625 C22.48375401 65.01765887 18.50837718 65.03885775 14.53125 65.06445312 C12.01041267 65.0618099 9.48957647 65.05668503 6.96875 65.04882812 C5.18114258 65.06097351 5.18114258 65.06097351 3.35742188 65.07336426 C2.24947266 65.06075562 1.14152344 65.04814697 0 65.03515625 C-0.97388672 65.03197388 -1.94777344 65.0287915 -2.95117188 65.0255127 C-6.34232566 64.35790336 -7.50682128 63.29422637 -9.53125 60.51757812 C-10.03918457 57.9375 -10.03918457 57.9375 -10.04882812 54.98632812 C-10.06143677 53.87837891 -10.07404541 52.77042969 -10.08703613 51.62890625 C-10.07893921 50.43716797 -10.07084229 49.24542969 -10.0625 48.01757812 C-10.0663269 46.78974609 -10.07015381 45.56191406 -10.07409668 44.296875 C-10.07681842 41.70116353 -10.06943911 39.10542476 -10.05273438 36.50976562 C-10.03133075 32.53258213 -10.05252963 28.55720531 -10.078125 24.58007812 C-10.07548177 22.0592408 -10.07035691 19.53840459 -10.0625 17.01757812 C-10.07059692 15.82583984 -10.07869385 14.63410156 -10.08703613 13.40625 C-10.07442749 12.29830078 -10.06181885 11.19035156 -10.04882812 10.04882812 C-10.04564575 9.07494141 -10.04246338 8.10105469 -10.03918457 7.09765625 C-8.91711969 1.39807362 -5.396739 0.01763494 0 0 Z M-5.53125 6.51757812 C-5.53125 9.15757813 -5.53125 11.79757813 -5.53125 14.51757812 C12.94875 14.51757812 31.42875 14.51757812 50.46875 14.51757812 C50.46875 11.87757812 50.46875 9.23757812 50.46875 6.51757812 C47.92601278 3.97484091 47.02435561 4.26492933 43.5 4.25878906 C42.46552734 4.25248474 41.43105469 4.24618042 40.36523438 4.23968506 C39.24439453 4.24373352 38.12355469 4.24778198 36.96875 4.25195312 C35.82212891 4.25003967 34.67550781 4.24812622 33.49414062 4.24615479 C31.06640402 4.24479191 28.63866016 4.24849545 26.2109375 4.25683594 C22.48420927 4.26753375 18.75796314 4.25694381 15.03125 4.24414062 C12.67708226 4.2454622 10.32291483 4.24802455 7.96875 4.25195312 C6.28749023 4.24588043 6.28749023 4.24588043 4.57226562 4.23968506 C3.53779297 4.24598938 2.50332031 4.2522937 1.4375 4.25878906 C0.06754883 4.26117584 0.06754883 4.26117584 -1.33007812 4.26361084 C-3.73841627 4.31047795 -3.73841627 4.31047795 -5.53125 6.51757812 Z M-5.53125 18.51757812 C-5.5725 25.07632812 -5.61375 31.63507812 -5.65625 38.39257812 C-5.67445801 40.46265137 -5.69266602 42.53272461 -5.71142578 44.66552734 C-5.71726544 46.30110413 -5.72236224 47.93668381 -5.7265625 49.57226562 C-5.73679443 50.42570557 -5.74702637 51.27914551 -5.75756836 52.15844727 C-5.75819981 54.27949946 -5.65455885 56.40011319 -5.53125 58.51757812 C-2.98851278 61.06031534 -2.08685561 60.77022692 1.4375 60.77636719 C2.98920898 60.78582367 2.98920898 60.78582367 4.57226562 60.79547119 C5.69310547 60.79142273 6.81394531 60.78737427 7.96875 60.78320312 C9.11537109 60.78511658 10.26199219 60.78703003 11.44335938 60.78900146 C13.87109598 60.79036434 16.29883984 60.7866608 18.7265625 60.77832031 C22.45329073 60.7676225 26.17953686 60.77821244 29.90625 60.79101562 C32.26041774 60.78969405 34.61458517 60.7871317 36.96875 60.78320312 C38.65000977 60.78927582 38.65000977 60.78927582 40.36523438 60.79547119 C41.91694336 60.78601471 41.91694336 60.78601471 43.5 60.77636719 C44.41330078 60.774776 45.32660156 60.77318481 46.26757812 60.77154541 C48.67591627 60.7246783 48.67591627 60.7246783 50.46875 58.51757812 C50.64416472 55.50534905 50.70016683 52.58370806 50.6640625 49.57226562 C50.66204834 48.78795166 50.66003418 48.0036377 50.65795898 47.19555664 C50.64748207 44.26117112 50.61955952 41.32686885 50.59375 38.39257812 C50.5525 31.83382813 50.51125 25.27507813 50.46875 18.51757812 C31.98875 18.51757812 13.50875 18.51757812 -5.53125 18.51757812 Z " fill="#000000" transform="translate(9.53125,-0.517578125)"/>
<path d="M0 0 C1.875 0.25 1.875 0.25 4 1 C5.25 3.0625 5.25 3.0625 6 5 C6.66 3.35 7.32 1.7 8 0 C9.875 0.25 9.875 0.25 12 1 C13.25 3.0625 13.25 3.0625 14 5 C14.66 3.35 15.32 1.7 16 0 C16.99 0 17.98 0 19 0 C19.45510807 6.67491831 17.7672426 12.59374557 16 19 C14.68 19.33 13.36 19.66 12 20 C11.34 18.35 10.68 16.7 10 15 C9.7525 15.639375 9.505 16.27875 9.25 16.9375 C8 19 8 19 5.875 19.75 C4.946875 19.87375 4.946875 19.87375 4 20 C1.13400685 13.65387231 -0.35724142 6.96620762 0 0 Z " fill="#000000" transform="translate(9,29)"/>
<path d="M0 0 C2.64 0 5.28 0 8 0 C10.75927344 2.75927344 10.51783243 5.21154052 11 9 C11.33 9.33 11.66 9.66 12 10 C12.25 13.375 12.25 13.375 12 17 C11.01 17.99 10.02 18.98 9 20 C6.03 20 3.06 20 0 20 C0 13.4 0 6.8 0 0 Z M3 4 C3 4.99 3 5.98 3 7 C3.99 7 4.98 7 6 7 C6 6.01 6 5.02 6 4 C5.01 4 4.02 4 3 4 Z M3 11 C3 12.65 3 14.3 3 16 C4.65 15.67 6.3 15.34 8 15 C7.67 13.68 7.34 12.36 7 11 C5.68 11 4.36 11 3 11 Z " fill="#000000" transform="translate(43,29)"/>
<path d="M0 0 C3.63 0 7.26 0 11 0 C11 1.32 11 2.64 11 4 C8.69 4 6.38 4 4 4 C4 5.32 4 6.64 4 8 C6.31 8 8.62 8 11 8 C11 9.32 11 10.64 11 12 C8.69 12 6.38 12 4 12 C4 13.32 4 14.64 4 16 C6.31 16 8.62 16 11 16 C11 17.32 11 18.64 11 20 C7.37 20 3.74 20 0 20 C0 13.4 0 6.8 0 0 Z " fill="#000000" transform="translate(30,29)"/>
<path d="M0 0 C1.98 0 3.96 0 6 0 C6 1.32 6 2.64 6 4 C4.02 4 2.04 4 0 4 C0 2.68 0 1.36 0 0 Z " fill="#000000" transform="translate(15,7)"/>
<path d="M0 0 C1.98 0 3.96 0 6 0 C6 1.32 6 2.64 6 4 C4.02 4 2.04 4 0 4 C0 2.68 0 1.36 0 0 Z " fill="#000000" transform="translate(7,7)"/>
</svg>
